<svg width="64" height="64" xmlns="http://www.w3.org/2000/svg" xmlns:xlink="http://www.w3.org/1999/xlink" xml:space="preserve" overflow="hidden"><g><g><path d="M48.26 48.26C44.79 51.74 40.49 53.86 36 54.64 33.36 55.12 30.64 55.12 28 54.64 23.51 53.86 19.21 51.74 15.74 48.26 6.75 39.28 6.75 24.72 15.74 15.74 24.72 6.75 39.28 6.75 48.26 15.74 57.25 24.72 57.25 39.28 48.26 48.26Z" fill="#008AA9" fill-rule="nonzero" fill-opacity="1"/><path d="M51 61C51 62.6569 42.4934 64 32 64 21.5066 64 13 62.6569 13 61 13 59.3431 21.5066 58 32 58 42.4934 58 51 59.3431 51 61Z" fill="#000000" fill-rule="nonzero" fill-opacity="0.3"/><path d="M36 28 36 32 40.847 32C41.456 32 41.923 32.539 41.837 33.141L41.245 37.282C41.105 38.268 40.261 39 39.265 39L36 39 36 54.64C33.36 55.12 30.64 55.12 28 54.64L28 39 24 39C22.895 39 22 38.105 22 37L22 34C22 32.895 22.895 32 24 32L28 32 28 28C28 21.397 31.559 16.574 40.354 18.146 41.305 18.316 42 19.154 42 20.12L42 22.099C42 23.113 41.238 23.978 40.23 24.082 37.41 24.372 36 25.481 36 28Z" fill="#FFFFFF" fill-rule="nonzero" fill-opacity="1"/><path d="M32 14C34.577 14 36.674 12.043 36.946 9.539 35.352 9.19 33.699 9 32 9 19.297 9 9 19.297 9 32 9 33.699 9.19 35.352 9.539 36.946 12.044 36.674 14 34.577 14 32 14 22.075 22.075 14 32 14Z" fill="#FFFFFF" fill-rule="nonzero" fill-opacity="0.3"/><path d="M54.461 27.054C51.956 27.326 50 29.423 50 32 50 41.925 41.925 50 32 50 29.423 50 27.326 51.957 27.054 54.461 28.648 54.81 30.301 55 32 55 44.703 55 55 44.703 55 32 55 30.301 54.81 28.648 54.461 27.054Z" fill="#000000" fill-rule="nonzero" fill-opacity="0.15"/><path d="M15.045 24.927C14.816 24.927 14.585 24.874 14.367 24.764 13.628 24.389 13.334 23.486 13.709 22.747 15.728 18.77 19.048 15.506 23.056 13.555 23.799 13.191 24.698 13.502 25.061 14.247 25.424 14.992 25.114 15.89 24.369 16.252 20.945 17.919 18.109 20.708 16.384 24.105 16.119 24.627 15.592 24.927 15.045 24.927Z" fill="#FFFFFF" fill-rule="nonzero" fill-opacity="1"/></g></g></svg>