<svg width="48" height="48" xmlns="http://www.w3.org/2000/svg" xmlns:xlink="http://www.w3.org/1999/xlink" xml:space="preserve" overflow="hidden"><g><g><path d="M41.67 13.48C41.27 13.74 40.7 13.98 40.46 14.25 40.37 14.34 40.32 14.44 40.34 14.54L40.34 15.57 40.04 16.58 39.74 17.58 39.41 18.68 38.73 20.93 38.07 23.15 37.57 24.82C37.57 25.08 37.56 25.34 37.54 25.59 37.47 26.55 37.27 27.47 36.95 28.33 36.76 28.86 36.53 29.37 36.25 29.85 36.15 30.04 36.03 30.23 35.91 30.41 35.51 31.04 35.03 31.62 34.5 32.13 34.09 32.54 33.64 32.92 33.15 33.24 33.15 33.24 33.15 33.24 33.14 33.24 33.06 33.31 32.97 33.37 32.87 33.42 32.56 33.63 32.23 33.81 31.89 33.97 31.66 34.09 31.43 34.19 31.19 34.28 31.14 34.31 31.08 34.33 31.03 34.35 30.46 34.62 29.8 34.8 29.14 34.89 29.1 34.9 29.07 34.9 29.03 34.91 28.63 34.98 28.24 35.04 27.84 35.07 27.66 35.09 27.47 35.1 27.29 35.1L26.58 35.06 23.16 34.88C23.16 34.87 23.15 34.88 23.15 34.88L21.43 34.79C21.3 34.79 21.16 34.79 21.03 34.78 20.49 34.76 19.97 34.7 19.45 34.59 19.44 34.59 19.44 34.59 19.44 34.59 18.49 34.41 17.58 34.09 16.73 33.66 16.26 33.42 15.8 33.15 15.37 32.84 15.19 32.71 15.02 32.57 14.85 32.42 14.37 32.02 13.94 31.59 13.54 31.15 13.48 31.09 13.43 31.03 13.38 30.97 13.32 30.91 13.26 30.84 13.21 30.78 12.83 30.3 12.51 29.81 12.25 29.29 12.01 28.83 11.82 28.34 11.67 27.8 11.61 27.61 11.56 27.43 11.52 27.23 11.51 27.22 11.5 27.2 11.5 27.18 11.4 26.77 11.31 26.34 11.26 25.91 11.2 25.58 11.17 25.25 11.17 24.91 11.15 24.78 11.15 24.64 11.15 24.51L13.06 21.56 14.93 18.68 15.78 17.37 16.55 16.19 16.81 15.78 16.81 14.75C16.83 14.52 16.84 14.28 16.83 14.06 16.82 13.36 16.68 12.68 16.45 12.03 16.23 11.34 15.92 10.69 15.6 10.09 15.22 9.4 14.82 8.78 14.49 8.22 14 7.4 13.66 6.73 13.75 6.26 14.47 6.09 15.23 6 16 6L32 6C36.18 6 39.78 8.6 41.27 12.26 41.43 12.65 41.57 13.06 41.67 13.48Z" fill="#304FFE" fill-rule="nonzero" fill-opacity="1"/><path d="M42 16 42 16.27 40.62 17.07 39.74 17.58 38.77 18.14 36.83 19.27 34.93 20.37 32.99 21.49 32.22 21.94C32.22 22.42 32.1 22.86 31.88 23.26 31.57 23.84 31.05 24.32 30.39 24.73 29.72 25.14 28.9 25.47 27.98 25.71 27.98 25.71 27.98 25.7 27.97 25.71 24.41 26.63 19.55 26.21 17.19 24.45 16.53 23.96 16.07 23.36 15.87 22.67 15.81 22.44 15.78 22.19 15.78 21.94L15.78 14.75C15.79 14.6 15.69 14.45 15.51 14.3 14.97 13.87 13.7 13.46 12.28 13.05 11.17 12.74 9.98 12.43 8.98 12.13 8.19 11.89 7.52 11.65 7.12 11.42 7.3 11.07 7.51 10.72 7.73 10.39 9.13 8.34 11.27 6.83 13.75 6.26 14.47 6.09 15.23 6 16 6L26.8 6C32.17 6.94 37.12 9.13 41.27 12.26 41.43 12.65 41.57 13.06 41.67 13.48 41.85 14.14 41.96 14.82 41.99 15.53 42 15.68 42 15.84 42 16Z" fill="#4928F4" fill-rule="nonzero" fill-opacity="1"/><path d="M42 16 42 20.41 41.78 21.09 41.03 23.42 40.25 25.82 39.84 27.1 39.46 28.29 39.09 29.42 38.73 30.54 38.54 31.13 38.29 31.91C38.29 32.67 38.27 33.34 38.22 33.91 38.21 33.97 38.2 34.03 38.2 34.09 38.14 34.62 38.06 35.07 37.93 35.45 37.92 35.51 37.9 35.57 37.88 35.62 37.62 36.34 37.23 36.8 36.65 37.1 36.51 37.18 36.35 37.24 36.18 37.3 35.65 37.48 34.98 37.57 34.16 37.62 33.56 37.66 32.87 37.67 32.09 37.67L31.4 37.67 30.21 37.62 30 37.61 27.83 37.52 25.63 37.43 18.38 37.13 16.5 37.05 16.24 37.05C15.46 37.04 14.79 36.99 14.21 36.91 13.37 36.78 12.72 36.56 12.23 36.23 11.53 35.78 11.12 35.12 10.88 34.2 10.82 33.98 10.77 33.75 10.74 33.5 10.64 32.92 10.59 32.25 10.56 31.5 10.56 31.35 10.56 31.2 10.55 31.04 10.54 31.03 10.55 31.03 10.55 31.03L10.55 30.45C10.54 30.16 10.54 29.86 10.54 29.55L10.59 27.94 10.62 26.79 10.66 25.45 10.66 25.26 10.73 22.8 10.8 20.34 10.87 18.03 10.93 15.76 10.95 15.16C10.95 14.85 9.9 14.67 8.73 14.52 7.8 14.4 6.78 14.29 6.17 14.15 6.22 13.92 6.27 13.69 6.33 13.47 6.51 12.75 6.78 12.07 7.12 11.42 7.3 11.07 7.51 10.72 7.73 10.39 9.89 9.44 12.14 8.7 14.49 8.22 16.55 7.79 18.7 7.56 20.92 7.56 28.28 7.56 35.08 10.05 40.46 14.25 40.98 14.65 41.49 15.08 41.99 15.53 42 15.68 42 15.84 42 16Z" fill="#6200EA" fill-rule="nonzero" fill-opacity="1"/><path d="M42 18.37 42 22.91 41.45 23.97 40.4 26.02 39.84 27.1 39.33 28.09 39.11 28.52C39.11 28.83 39.11 29.13 39.09 29.42 39.09 29.85 39.07 30.26 39.04 30.64 39 31.09 38.94 31.5 38.88 31.88 38.73 32.67 38.52 33.35 38.22 33.91 38.18 33.98 38.14 34.05 38.1 34.11 37.99 34.29 37.86 34.46 37.72 34.62 37.54 34.84 37.34 35.03 37.11 35.19 36.77 35.45 36.37 35.66 35.91 35.82 35.34 36.03 34.68 36.17 33.9 36.25 33.39 36.3 32.83 36.33 32.22 36.33L31.8 36.35 29.72 36.47 29.71 36.47 27.5 36.6 25.25 36.73 22.15 36.91 18.38 37.13 17.83 37.16C17.32 37.16 16.84 37.13 16.38 37.07 16.33 37.06 16.29 37.05 16.24 37.05 15.56 36.94 14.94 36.76 14.38 36.51 13.7 36.21 13.11 35.81 12.61 35.33 12.17 34.9 11.79 34.41 11.48 33.86 11.41 33.73 11.34 33.61 11.28 33.47 10.98 32.88 10.74 32.22 10.56 31.5 10.53 31.38 10.5 31.25 10.48 31.12 10.42 30.89 10.37 30.65 10.34 30.4 10.23 29.76 10.17 29.08 10.14 28.37L10.14 28.36C10.13 28.07 10.12 27.79 10.12 27.49L9.63 26.32 9.56 26.14 9.5 25.99 8.75 24.2 8.63 23.91 7.91 22.18 7.11 20.25C7.11 20.25 7.11 20.25 7.1 20.25L6.29 18.3 6 17.59 6 16C6 15.37 6.06 14.75 6.17 14.15 6.22 13.92 6.27 13.69 6.33 13.47 7.18 12.98 8.07 12.53 8.98 12.13 11.06 11.2 13.29 10.51 15.6 10.09 17.32 9.78 19.11 9.61 20.92 9.61 28.23 9.61 34.86 12.26 40.04 16.58 40.24 16.74 40.43 16.9 40.62 17.07 41.09 17.48 41.55 17.91 42 18.37Z" fill="#673AB7" fill-rule="nonzero" fill-opacity="1"/><path d="M42 21.35 42 26.49 41.43 27.68 40.35 29.93 40.34 29.96C40.34 30.39 40.32 30.78 40.29 31.13 40.19 32.28 39.91 33.01 39.45 33.46 39.12 33.8 38.71 33.99 38.2 34.09 38.17 34.1 38.13 34.1 38.1 34.11 37.94 34.14 37.77 34.16 37.59 34.16 36.97 34.22 36.24 34.18 35.4 34.12 35.31 34.12 35.21 34.11 35.11 34.1 34.5 34.06 33.85 34.02 33.13 33.99 32.74 33.98 32.33 33.97 31.91 33.97L31.89 33.97 30.88 34.05 30.87 34.05 28.6 34.21 26.01 34.41 25.63 34.44 22.6 34.66 21.03 34.78 19.48 34.89C19.21 34.89 18.95 34.89 18.69 34.88 18.69 34.88 18.68 34.87 18.68 34.88 17.55 34.86 16.54 34.79 15.64 34.62 14.81 34.48 14.08 34.26 13.46 33.93 12.82 33.62 12.29 33.18 11.86 32.62 11.45 32.07 11.15 31.38 10.96 30.55 10.96 30.54 10.96 30.54 10.96 30.54 10.82 29.87 10.74 29.09 10.74 28.21L10.59 27.94 9.7 26.35 9.57 26.13 9.5 25.99 8.57 24.34 8.11 23.51 7.53 22.48 6.53 20.69 6 19.75 6 16.07C6.88 15.49 7.79 14.98 8.73 14.52 9.87 13.94 11.05 13.45 12.28 13.05 13.62 12.61 15.02 12.26 16.45 12.03 17.9 11.79 19.39 11.67 20.92 11.67 27.72 11.67 33.96 14.1 38.77 18.14 38.99 18.31 39.2 18.5 39.41 18.68 40.25 19.43 41.05 20.24 41.78 21.09 41.86 21.18 41.94 21.26 42 21.35Z" fill="#8E24AA" fill-rule="nonzero" fill-opacity="1"/><path d="M42 24.71 42 31.94C41.76 31.8 41.43 31.63 41.02 31.45 40.8 31.34 40.55 31.23 40.29 31.13 39.91 30.96 39.5 30.8 39.04 30.64 38.94 30.6 38.84 30.57 38.73 30.54 38.55 30.47 38.36 30.41 38.17 30.35 37.58 30.17 36.93 30 36.25 29.85 35.99 29.8 35.72 29.75 35.45 29.71 34.58 29.56 33.65 29.47 32.68 29.46 32.6 29.45 32.51 29.45 32.43 29.45L29.86 29.47 26.36 29.49 26.35 29.49 18.86 29.55C16.48 29.55 15.02 30.12 14.14 30.35 14.14 30.35 14.13 30.35 14.13 30.36 13.2 30.6 12.91 30.45 12.83 28.82 12.81 28.37 12.8 27.79 12.8 27.08L12.24 26.65 11.26 25.91 10.66 25.45 10.54 25.36 8.88 24.1 8.63 23.91 8.11 23.51 7.15 22.79 6 21.91 6 18.51C6.1 18.43 6.19 18.36 6.29 18.3 7.74 17.3 9.29 16.45 10.93 15.76 12.39 15.14 13.93 14.65 15.51 14.3 15.94 14.21 16.38 14.12 16.83 14.06 18.16 13.83 19.53 13.72 20.92 13.72 26.93 13.72 32.45 15.81 36.83 19.27 37.49 19.79 38.13 20.34 38.73 20.93 39.55 21.71 40.32 22.54 41.03 23.42 41.17 23.6 41.31 23.78 41.45 23.97 41.64 24.21 41.82 24.46 42 24.71Z" fill="#C2185B" fill-rule="nonzero" fill-opacity="1"/><path d="M42 28.72 42 32C42 32.65 41.94 33.29 41.82 33.91 41.64 34.83 41.33 35.71 40.91 36.53 40.69 36.58 40.44 36.58 40.16 36.54 39.53 36.43 38.79 36.1 37.99 35.67 37.95 35.66 37.91 35.64 37.88 35.62 37.63 35.49 37.37 35.35 37.11 35.19 36.58 34.9 36.02 34.58 35.46 34.28 35.34 34.22 35.22 34.16 35.11 34.1 34.47 33.77 33.81 33.47 33.15 33.24 33.15 33.24 33.15 33.24 33.14 33.24 33 33.19 32.85 33.14 32.7 33.1 32.13 32.94 31.55 32.84 30.99 32.84L29.89 32.52 25.02 31.11C25.02 31.11 25.02 31.11 25.01 31.11L22.02 30.24 22.01 30.24 20.71 29.86C16.95 29.86 14.64 31.46 13.52 30.85 13.08 30.62 12.82 30.04 12.73 28.9 12.7 28.58 12.69 28.22 12.69 27.8L11.52 27.23 11.47 27.21 11.46 27.21 10.62 26.79 9.7 26.35 9.63 26.32 9.46 26.23 7.5 25.28 6 24.55 6 21.12C6.17 20.97 6.35 20.83 6.53 20.69 6.72 20.54 6.91 20.4 7.1 20.25 7.11 20.25 7.11 20.25 7.11 20.25 8.29 19.4 9.54 18.65 10.87 18.03 12.42 17.29 14.07 16.72 15.78 16.35 16.03 16.29 16.29 16.23 16.55 16.19 17.97 15.92 19.43 15.78 20.92 15.78 26.19 15.78 31.03 17.49 34.93 20.37 36.06 21.21 37.11 22.14 38.07 23.15 38.86 23.98 39.59 24.88 40.25 25.82 40.3 25.89 40.35 25.96 40.4 26.02 40.77 26.56 41.11 27.11 41.43 27.68 41.64 28.02 41.82 28.37 42 28.72Z" fill="#D81B60" fill-rule="nonzero" fill-opacity="1"/><path d="M41.82 33.91C41.64 34.83 41.33 35.71 40.91 36.53 40.72 36.9 40.51 37.25 40.28 37.59 40.14 37.8 39.99 38 39.84 38.19 39.48 38.05 38.95 37.85 38.3 37.63 38.3 37.63 38.3 37.63 38.3 37.62 37.81 37.45 37.25 37.27 36.65 37.1 36.48 37.05 36.31 37 36.13 36.95 35.42 36.76 34.68 36.59 33.96 36.49 33.36 36.39 32.77 36.33 32.22 36.33L31.76 36.2 31.75 36.2 29.33 35.5 27.84 35.07 26.18 34.59 26.17 34.59 25.63 34.44 19.1 32.56 17.22 32.02 15.82 31.69 13.54 31.15 13.26 31.08C13.26 31.08 13.26 31.08 13.25 31.08L10.96 30.55C10.96 30.54 10.96 30.54 10.96 30.54L10.55 30.45 10.34 30.4 8.67 30.01 8.48 29.96 7.06 28.79 6 27.9 6 23.82C6.37 23.46 6.75 23.12 7.15 22.79 7.27 22.68 7.4 22.58 7.53 22.48 7.65 22.38 7.78 22.28 7.91 22.18 8.82 21.49 9.78 20.87 10.8 20.34 12.1 19.64 13.48 19.08 14.93 18.68 15.21 18.59 15.49 18.51 15.78 18.45 17.42 18.04 19.14 17.83 20.92 17.83 25.39 17.83 29.55 19.18 32.99 21.49 34.7 22.64 36.24 24.02 37.54 25.59 38.2 26.38 38.8 27.21 39.33 28.09 39.38 28.16 39.42 28.22 39.46 28.29 39.78 28.82 40.08 29.37 40.35 29.93 40.6 30.43 40.82 30.93 41.02 31.45 41.34 32.25 41.6 33.07 41.82 33.91Z" fill="#F50057" fill-rule="nonzero" fill-opacity="1"/><path d="M40.28 37.59C40.14 37.8 39.99 38 39.84 38.19 39.4 38.74 38.92 39.24 38.38 39.68 37.91 40.07 37.41 40.42 36.88 40.72 36.68 40.67 36.48 40.61 36.27 40.53 35.61 40.3 34.92 39.92 34.28 39.52 33.32 38.91 32.49 38.25 32.12 37.95 31.98 37.83 31.91 37.77 31.91 37.77L30.21 37.62 30 37.6 27.8 37.41 25.52 37.21 22.15 36.91 16.81 36.44 16.79 36.43 14.91 35.52 13.01 34.6 11.48 33.86 11.15 33.7 10.74 33.5 9.32 32.81 7.43 31.9 6.84 31.61 6 31.35 6 26.88C6.47 26.32 6.97 25.79 7.5 25.28 7.84 24.96 8.2 24.64 8.57 24.34 8.63 24.29 8.69 24.24 8.75 24.2 8.79 24.15 8.84 24.12 8.88 24.1 9.47 23.62 10.09 23.19 10.73 22.8 11.47 22.33 12.25 21.91 13.06 21.56 13.93 21.17 14.84 20.84 15.78 20.59 17.41 20.13 19.14 19.89 20.92 19.89 25 19.89 28.77 21.13 31.88 23.26 33.87 24.62 35.59 26.34 36.95 28.33 37.4 28.97 37.8 29.65 38.17 30.35 38.3 30.61 38.43 30.87 38.54 31.13 38.66 31.38 38.77 31.63 38.88 31.88 39.09 32.4 39.28 32.92 39.45 33.46 39.77 34.46 40.01 35.48 40.16 36.54 40.21 36.89 40.25 37.24 40.28 37.59Z" fill="#FF1744" fill-rule="nonzero" fill-opacity="1"/><path d="M38.39 39.42C38.39 39.5 38.39 39.59 38.38 39.68 37.91 40.07 37.41 40.42 36.88 40.72 36.66 40.84 36.44 40.96 36.21 41.06 35.98 41.17 35.75 41.27 35.51 41.36 35.17 41.18 34.71 40.96 34.22 40.75 33.53 40.44 32.78 40.16 32.2 40.07 32.06 40.04 31.93 40.03 31.81 40.03L30.17 39.82 30.15 39.82 28.11 39.55 26.05 39.28 25.09 39.16 17.53 38.18C17.04 38.18 16.52 38.15 15.98 38.08 15.32 38.02 14.63 37.92 13.94 37.78 13.26 37.66 12.57 37.5 11.91 37.33 11.22 37.17 10.54 36.98 9.91 36.8 9.18 36.58 8.5 36.37 7.93 36.18 7.46 36.03 7.06 35.89 6.75 35.78 6.57 35.35 6.42 34.9 6.31 34.44 6.1 33.66 6 32.84 6 32L6 30.33C6.32 29.8 6.67 29.28 7.06 28.79 7.77 27.85 8.58 26.99 9.46 26.23 9.49 26.19 9.53 26.16 9.56 26.14L9.57 26.13C9.88 25.85 10.2 25.6 10.54 25.36 10.58 25.32 10.62 25.29 10.66 25.26 10.82 25.14 10.99 25.02 11.17 24.91 12.6 23.94 14.18 23.18 15.87 22.67 17.47 22.19 19.16 21.94 20.92 21.94 24.41 21.94 27.67 22.97 30.39 24.73 32.4 26.02 34.13 27.72 35.45 29.71 35.61 29.94 35.76 30.17 35.91 30.41 36.6 31.58 37.17 32.84 37.59 34.16 37.64 34.31 37.68 34.46 37.72 34.62 37.8 34.89 37.87 35.17 37.93 35.45 37.95 35.52 37.97 35.59 37.99 35.67 38.13 36.3 38.23 36.96 38.3 37.62 38.3 37.63 38.3 37.63 38.3 37.63 38.36 38.22 38.39 38.82 38.39 39.42Z" fill="#FF5722" fill-rule="nonzero" fill-opacity="1"/><path d="M36.33 39.42C36.33 39.77 36.31 40.15 36.27 40.53 36.25 40.71 36.23 40.89 36.21 41.06 35.98 41.17 35.75 41.27 35.51 41.36 35.06 41.53 34.6 41.67 34.13 41.77 33.81 41.84 33.48 41.9 33.15 41.93L33.14 41.93C32.83 41.74 32.47 41.51 32.1 41.25 31.43 40.78 30.73 40.25 30.17 39.82 30.16 39.81 30.16 39.81 30.15 39.8 29.56 39.35 29.14 39.01 29.14 39.01L28.08 39.05 26.04 39.12 25.09 39.16 21.27 39.3 18.04 39.42C17.83 39.43 17.58 39.43 17.27 39.42L17.26 39.42C16.84 39.41 16.34 39.38 15.79 39.33 15.15 39.28 14.45 39.22 13.74 39.15 13.05 39.07 12.35 38.99 11.68 38.91 10.94 38.83 10.24 38.74 9.64 38.66 9.17 38.6 8.76 38.55 8.43 38.51 8.15 38.19 7.9 37.86 7.66 37.5 7.3 36.96 6.99 36.39 6.75 35.78 6.57 35.35 6.42 34.9 6.31 34.44 6.6 33.55 6.98 32.71 7.43 31.9 7.79 31.24 8.21 30.61 8.67 30.01 9.12 29.42 9.61 28.87 10.14 28.37L10.14 28.36C10.29 28.21 10.44 28.07 10.59 27.94 10.87 27.68 11.16 27.44 11.46 27.21L11.47 27.21C11.48 27.19 11.49 27.19 11.5 27.18 11.74 26.99 11.99 26.82 12.24 26.65 13.72 25.64 15.39 24.89 17.19 24.45 18.38 24.16 19.63 24 20.92 24 23.46 24 25.86 24.61 27.97 25.71L27.98 25.71C29.79 26.64 31.39 27.92 32.68 29.46 33.39 30.28 34 31.18 34.5 32.13 34.85 32.77 35.15 33.44 35.4 34.12 35.42 34.18 35.44 34.23 35.46 34.28 35.63 34.78 35.78 35.3 35.91 35.82 36 36.19 36.07 36.57 36.13 36.95 36.15 37.07 36.17 37.18 36.18 37.3 36.28 37.99 36.33 38.7 36.33 39.42Z" fill="#FF6F00" fill-rule="nonzero" fill-opacity="1"/><path d="M34.28 39.42 34.28 39.52C34.28 39.86 34.25 40.29 34.22 40.75 34.19 41.09 34.16 41.44 34.13 41.77 33.81 41.84 33.48 41.9 33.15 41.93L33.14 41.93C32.76 41.98 32.39 42 32 42L30.25 42 29.87 41.89 27.9 41.29 25.9 40.69 21.27 39.3 19.27 38.7C19.27 38.7 18.44 39.03 17.27 39.42L17.26 39.42C16.81 39.57 16.32 39.73 15.8 39.89 15.15 40.08 14.46 40.27 13.78 40.42 13.08 40.58 12.39 40.7 11.77 40.75 11.58 40.77 11.39 40.78 11.22 40.78 10.66 40.47 10.12 40.1 9.63 39.69 9.2 39.33 8.8 38.94 8.43 38.51 8.15 38.19 7.9 37.86 7.66 37.5 7.73 37.05 7.81 36.61 7.93 36.18 8.23 34.99 8.7 33.85 9.32 32.81 9.66 32.22 10.04 31.65 10.48 31.12 10.49 31.09 10.52 31.06 10.55 31.04 10.54 31.03 10.55 31.03 10.55 31.03 10.68 30.86 10.82 30.7 10.96 30.55 10.96 30.54 10.96 30.54 10.96 30.54 11.37 30.1 11.79 29.68 12.25 29.29 12.41 29.16 12.56 29.03 12.73 28.9 12.76 28.87 12.79 28.85 12.83 28.82 15.08 27.1 17.89 26.06 20.92 26.06 24.36 26.06 27.49 27.35 29.86 29.47 31 30.5 31.97 31.73 32.7 33.1 32.76 33.2 32.82 33.31 32.87 33.42 32.96 33.6 33.05 33.79 33.13 33.99 33.46 34.71 33.72 35.47 33.9 36.25 33.92 36.33 33.94 36.41 33.96 36.49 34.04 36.86 34.11 37.24 34.16 37.62 34.24 38.21 34.28 38.81 34.28 39.42Z" fill="#FF9800" fill-rule="nonzero" fill-opacity="1"/><path d="M32.22 39.42C32.22 39.62 32.21 39.84 32.2 40.07 32.18 40.44 32.15 40.84 32.1 41.25 32.08 41.5 32.04 41.75 32 42L26.52 42 25.46 41.83 21.32 41.17 20.73 41.08 19.38 40.86C18.79 40.86 17.51 41.12 16.16 41.37 15.45 41.5 14.73 41.64 14.08 41.73 14 41.74 13.92 41.75 13.85 41.76L13.84 41.76C13.14 41.61 12.46 41.38 11.82 41.08 11.62 40.99 11.42 40.89 11.22 40.78 10.66 40.47 10.12 40.1 9.63 39.69 9.62 39.57 9.61 39.47 9.61 39.42 9.61 39.16 9.62 38.91 9.64 38.66 9.68 38.02 9.77 37.4 9.91 36.8 10.13 35.89 10.45 35.01 10.88 34.2 10.96 34.03 11.05 33.86 11.15 33.7 11.19 33.62 11.24 33.55 11.28 33.47 11.46 33.18 11.66 32.9 11.86 32.62 12.28 32.07 12.75 31.55 13.25 31.08 13.26 31.08 13.26 31.08 13.26 31.08 13.3 31.04 13.34 31 13.38 30.97 13.43 30.93 13.47 30.88 13.52 30.85 13.72 30.67 13.92 30.51 14.13 30.36 14.13 30.35 14.14 30.35 14.14 30.35 16.03 28.94 18.37 28.11 20.92 28.11 22.9 28.11 24.74 28.61 26.35 29.49L26.36 29.49C27.74 30.25 28.94 31.28 29.89 32.52 30.26 33 30.59 33.51 30.87 34.05L30.88 34.05C30.93 34.15 30.98 34.25 31.03 34.35 31.33 34.94 31.57 35.56 31.75 36.2L31.76 36.2C31.77 36.25 31.79 36.3 31.8 36.35 31.92 36.78 32.02 37.22 32.09 37.67 32.1 37.76 32.11 37.86 32.12 37.95 32.19 38.43 32.22 38.92 32.22 39.42Z" fill="#FFC107" fill-rule="nonzero" fill-opacity="1"/><path d="M30.17 39.31C30.17 39.47 30.17 39.64 30.15 39.8L30.15 39.81C30.15 39.82 30.15 39.82 30.15 39.82 30.13 40.54 30.03 41.25 29.87 41.89 29.87 41.93 29.86 41.96 29.84 42L25.17 42 21.32 41.17 20.81 41.06 20.73 41.08 16.46 41.96 16.27 42 16 42C15.36 42 14.73 41.94 14.12 41.82 14.03 41.8 13.94 41.78 13.85 41.76L13.84 41.76C13.14 41.61 12.46 41.38 11.82 41.08 11.8 40.97 11.78 40.86 11.77 40.75 11.7 40.32 11.67 39.87 11.67 39.42 11.67 39.25 11.67 39.08 11.68 38.91 11.71 38.37 11.79 37.84 11.91 37.33 11.99 36.95 12.1 36.58 12.23 36.23 12.34 35.92 12.47 35.62 12.61 35.33 12.73 35.08 12.87 34.84 13.01 34.6 13.15 34.37 13.3 34.15 13.46 33.93 13.86 33.38 14.33 32.87 14.85 32.42 15.15 32.16 15.48 31.91 15.82 31.69 17.28 30.73 19.03 30.17 20.92 30.17 21.29 30.17 21.65 30.19 22 30.24L22.02 30.24C23.09 30.36 24.09 30.66 25.01 31.11 25.02 31.11 25.02 31.11 25.02 31.11 26.47 31.82 27.7 32.89 28.6 34.21 28.75 34.43 28.9 34.67 29.03 34.91 29.14 35.1 29.24 35.3 29.33 35.5 29.47 35.81 29.6 36.14 29.71 36.47L29.72 36.47C29.83 36.84 29.93 37.21 30 37.6L30 37.61C30.11 38.16 30.17 38.73 30.17 39.31Z" fill="#FFD54F" fill-rule="nonzero" fill-opacity="1"/><path d="M28.11 39.52 28.11 39.55C28.11 40.14 28.04 40.72 27.9 41.29 27.85 41.53 27.78 41.77 27.69 42L23.21 42 20.92 41.37 18.63 42 16 42C15.36 42 14.73 41.94 14.12 41.82 14.1 41.79 14.09 41.76 14.08 41.73 13.94 41.3 13.83 40.87 13.78 40.42 13.74 40.13 13.72 39.83 13.72 39.52 13.72 39.4 13.72 39.27 13.74 39.15 13.75 38.68 13.82 38.22 13.94 37.78 14 37.48 14.09 37.19 14.21 36.91 14.25 36.77 14.31 36.64 14.38 36.51 14.53 36.17 14.71 35.84 14.91 35.52 15.13 35.2 15.37 34.9 15.64 34.62 15.96 34.26 16.32 33.93 16.73 33.66 17.43 33.15 18.23 32.77 19.1 32.56 19.68 32.4 20.29 32.32 20.92 32.32 22.92 32.32 24.71 33.12 26.01 34.41 26.06 34.46 26.12 34.52 26.17 34.59L26.18 34.59C26.32 34.74 26.45 34.89 26.58 35.06 26.95 35.53 27.26 36.04 27.5 36.6 27.62 36.86 27.72 37.13 27.8 37.41 27.81 37.45 27.82 37.48 27.83 37.52 27.97 38.01 28.06 38.52 28.08 39.05 28.1 39.2 28.11 39.36 28.11 39.52Z" fill="#FFE082" fill-rule="nonzero" fill-opacity="1"/><path d="M26.06 39.52C26.06 39.93 26.01 40.32 25.9 40.69 25.8 41.09 25.65 41.47 25.46 41.83 25.43 41.89 25.36 42 25.36 42L16.48 42C16.47 41.99 16.46 41.97 16.46 41.96 16.34 41.77 16.24 41.58 16.16 41.37 15.96 40.91 15.84 40.41 15.8 39.89 15.78 39.77 15.78 39.64 15.78 39.52 15.78 39.46 15.78 39.39 15.79 39.33 15.8 38.89 15.86 38.47 15.98 38.08 16.08 37.72 16.21 37.39 16.38 37.07 16.38 37.07 16.39 37.06 16.39 37.05 16.51 36.84 16.64 36.63 16.79 36.43 17.28 35.77 17.93 35.23 18.68 34.88 18.69 34.88 18.69 34.88 18.69 34.88 18.93 34.76 19.18 34.66 19.44 34.59 19.44 34.59 19.44 34.59 19.45 34.59 19.91 34.45 20.41 34.38 20.92 34.38 21.51 34.38 22.08 34.47 22.6 34.66 22.79 34.71 22.97 34.79 23.15 34.88 23.15 34.88 23.15 34.88 23.16 34.88 24.02 35.29 24.75 35.93 25.25 36.73 25.35 36.88 25.44 37.04 25.52 37.21 25.56 37.28 25.6 37.36 25.63 37.43 25.86 37.95 26 38.52 26.04 39.12 26.05 39.17 26.05 39.22 26.05 39.28 26.06 39.36 26.06 39.44 26.06 39.52Z" fill="#FFECB3" fill-rule="nonzero" fill-opacity="1"/><path d="M30 11 18 11C14.1 11 11 14.1 11 18L11 30C11 33.9 14.1 37 18 37L30 37C33.9 37 37 33.9 37 30L37 18C37 14.1 33.9 11 30 11Z" stroke="#FFFFFF" stroke-width="2" stroke-linecap="round" stroke-linejoin="round" stroke-miterlimit="10" stroke-opacity="1" fill="none" fill-rule="nonzero"/><path d="M32 16C32 16.5523 31.5523 17 31 17 30.4477 17 30 16.5523 30 16 30 15.4477 30.4477 15 31 15 31.5523 15 32 15.4477 32 16Z" fill="#FFFFFF" fill-rule="nonzero" fill-opacity="1"/><path d="M30 24C30 27.3137 27.3137 30 24 30 20.6863 30 18 27.3137 18 24 18 20.6863 20.6863 18 24 18 27.3137 18 30 20.6863 30 24Z" stroke="#FFFFFF" stroke-width="2" stroke-linecap="round" stroke-linejoin="round" stroke-miterlimit="10" stroke-opacity="1" fill="none" fill-rule="nonzero"/></g></g></svg>