<svg width="48" height="48" xmlns="http://www.w3.org/2000/svg" xmlns:xlink="http://www.w3.org/1999/xlink" xml:space="preserve" overflow="hidden"><defs><linearGradient x1="10.341" y1="8.312" x2="40.798" y2="38.769" gradientUnits="userSpaceOnUse" spreadMethod="pad" id="fill0"><stop offset="0" stop-color="#2AA4F4" stop-opacity="1"/><stop offset="1" stop-color="#007AD9" stop-opacity="1"/></linearGradient></defs><g><g><path d="M46.105 11.02C44.554 11.707 42.886 12.165 41.126 12.382 42.915 11.32 44.292 9.626 44.938 7.624 43.264 8.605 41.409 9.326 39.436 9.706 37.86 8.036 35.612 7 33.122 7 28.339 7 24.461 10.843 24.461 15.582 24.461 16.253 24.54 16.906 24.687 17.54 17.491 17.179 11.108 13.758 6.838 8.566 6.088 9.835 5.666 11.32 5.666 12.888 5.666 15.867 7.191 18.49 9.517 20.035 8.097 19.992 6.761 19.597 5.591 18.963 5.591 18.989 5.591 19.027 5.591 19.064 5.591 23.227 8.577 26.694 12.535 27.483 11.812 27.681 11.047 27.791 10.259 27.791 9.7 27.791 9.155 27.728 8.627 27.633 9.729 31.035 12.926 33.522 16.714 33.596 13.75 35.894 10.017 37.27 5.958 37.27 5.257 37.27 4.571 37.23 3.893 37.148 7.73 39.577 12.283 41 17.171 41 33.098 41 41.812 27.921 41.812 16.574 41.812 16.202 41.8 15.832 41.783 15.466 43.483 14.265 44.948 12.751 46.105 11.02" fill="url(#fill0)" fill-rule="nonzero"/></g></g></svg>